<svg width="1363" height="163" viewBox="0 0 1363 163" fill="none" xmlns="http://www.w3.org/2000/svg">
<g clip-path="url(#clip0_410_2)">
<path d="M0 15C0 6.71573 6.71573 0 15 0H37V163H15C6.71573 163 0 156.284 0 148V15Z" fill="#424242"/>
<path d="M1134 0H37V163H1134V0Z" fill="#F0F0F0"/>
<path d="M110.062 92.0469L101.742 119H92.9062L105.445 84.875H111.047L110.062 92.0469ZM116.953 119L108.609 92.0469L107.531 84.875H113.203L125.812 119H116.953ZM116.625 106.273V112.625H99.1172V106.273H116.625ZM137.062 84.875V119H128.859V84.875H137.062ZM157.898 101.234V107.352H143.812V101.234H157.898ZM178.078 107.422H169.594V101.07H178.078C179.234 101.07 180.172 100.875 180.891 100.484C181.609 100.094 182.133 99.5547 182.461 98.8672C182.805 98.1641 182.977 97.375 182.977 96.5C182.977 95.5625 182.805 94.6953 182.461 93.8984C182.133 93.1016 181.609 92.4609 180.891 91.9766C180.172 91.4766 179.234 91.2266 178.078 91.2266H172.688V119H164.461V84.875H178.078C180.812 84.875 183.164 85.375 185.133 86.375C187.117 87.375 188.641 88.75 189.703 90.5C190.766 92.2344 191.297 94.2188 191.297 96.4531C191.297 98.6562 190.766 100.578 189.703 102.219C188.641 103.859 187.117 105.141 185.133 106.062C183.164 106.969 180.812 107.422 178.078 107.422ZM194.039 106.578V106.086C194.039 104.227 194.305 102.516 194.836 100.953C195.367 99.375 196.148 98.0078 197.18 96.8516C198.211 95.6953 199.484 94.7969 201 94.1562C202.516 93.5 204.266 93.1719 206.25 93.1719C208.25 93.1719 210.008 93.5 211.523 94.1562C213.055 94.7969 214.336 95.6953 215.367 96.8516C216.398 98.0078 217.18 99.375 217.711 100.953C218.242 102.516 218.508 104.227 218.508 106.086V106.578C218.508 108.422 218.242 110.133 217.711 111.711C217.18 113.273 216.398 114.641 215.367 115.812C214.336 116.969 213.062 117.867 211.547 118.508C210.031 119.148 208.281 119.469 206.297 119.469C204.312 119.469 202.555 119.148 201.023 118.508C199.492 117.867 198.211 116.969 197.18 115.812C196.148 114.641 195.367 113.273 194.836 111.711C194.305 110.133 194.039 108.422 194.039 106.578ZM201.938 106.086V106.578C201.938 107.531 202.008 108.422 202.148 109.25C202.289 110.078 202.523 110.805 202.852 111.43C203.18 112.039 203.625 112.516 204.188 112.859C204.75 113.203 205.453 113.375 206.297 113.375C207.125 113.375 207.812 113.203 208.359 112.859C208.922 112.516 209.367 112.039 209.695 111.43C210.023 110.805 210.258 110.078 210.398 109.25C210.539 108.422 210.609 107.531 210.609 106.578V106.086C210.609 105.164 210.539 104.297 210.398 103.484C210.258 102.656 210.023 101.93 209.695 101.305C209.367 100.664 208.922 100.164 208.359 99.8047C207.797 99.4453 207.094 99.2656 206.25 99.2656C205.422 99.2656 204.727 99.4453 204.164 99.8047C203.617 100.164 203.18 100.664 202.852 101.305C202.523 101.93 202.289 102.656 202.148 103.484C202.008 104.297 201.938 105.164 201.938 106.086ZM229.734 111.453L234.422 93.6406H239.367L237.609 102.57L232.969 119H229.008L229.734 111.453ZM227.883 93.6406L230.789 111.312L231.117 119H226.312L220.312 93.6406H227.883ZM243.539 110.938L246.469 93.6406H254.039L248.086 119H243.281L243.539 110.938ZM239.93 93.6406L244.664 111.406L245.391 119H241.383L236.836 102.617L235.148 93.6406H239.93ZM269.18 119.469C267.117 119.469 265.273 119.148 263.648 118.508C262.023 117.852 260.648 116.953 259.523 115.812C258.414 114.672 257.562 113.359 256.969 111.875C256.391 110.391 256.102 108.82 256.102 107.164V106.273C256.102 104.414 256.359 102.695 256.875 101.117C257.391 99.5234 258.156 98.1328 259.172 96.9453C260.188 95.7578 261.461 94.8359 262.992 94.1797C264.523 93.5078 266.305 93.1719 268.336 93.1719C270.133 93.1719 271.742 93.4609 273.164 94.0391C274.586 94.6172 275.789 95.4453 276.773 96.5234C277.773 97.6016 278.531 98.9062 279.047 100.438C279.578 101.969 279.844 103.688 279.844 105.594V108.805H259.125V103.859H272.133V103.25C272.148 102.406 272 101.688 271.688 101.094C271.391 100.5 270.953 100.047 270.375 99.7344C269.797 99.4219 269.094 99.2656 268.266 99.2656C267.406 99.2656 266.695 99.4531 266.133 99.8281C265.586 100.203 265.156 100.719 264.844 101.375C264.547 102.016 264.336 102.758 264.211 103.602C264.086 104.445 264.023 105.336 264.023 106.273V107.164C264.023 108.102 264.148 108.953 264.398 109.719C264.664 110.484 265.039 111.141 265.523 111.688C266.023 112.219 266.617 112.633 267.305 112.93C268.008 113.227 268.805 113.375 269.695 113.375C270.773 113.375 271.836 113.172 272.883 112.766C273.93 112.359 274.828 111.688 275.578 110.75L279.164 115.016C278.648 115.75 277.914 116.461 276.961 117.148C276.023 117.836 274.898 118.398 273.586 118.836C272.273 119.258 270.805 119.469 269.18 119.469ZM291.023 99.9219V119H283.125V93.6406H290.508L291.023 99.9219ZM298.523 93.4531L298.383 100.789C298.07 100.758 297.648 100.719 297.117 100.672C296.586 100.625 296.141 100.602 295.781 100.602C294.859 100.602 294.062 100.711 293.391 100.93C292.734 101.133 292.188 101.445 291.75 101.867C291.328 102.273 291.016 102.789 290.812 103.414C290.625 104.039 290.539 104.766 290.555 105.594L289.125 104.656C289.125 102.953 289.289 101.406 289.617 100.016C289.961 98.6094 290.445 97.3984 291.07 96.3828C291.695 95.3516 292.453 94.5625 293.344 94.0156C294.234 93.4531 295.234 93.1719 296.344 93.1719C296.734 93.1719 297.117 93.1953 297.492 93.2422C297.883 93.2891 298.227 93.3594 298.523 93.4531ZM313.055 119.469C310.992 119.469 309.148 119.148 307.523 118.508C305.898 117.852 304.523 116.953 303.398 115.812C302.289 114.672 301.438 113.359 300.844 111.875C300.266 110.391 299.977 108.82 299.977 107.164V106.273C299.977 104.414 300.234 102.695 300.75 101.117C301.266 99.5234 302.031 98.1328 303.047 96.9453C304.062 95.7578 305.336 94.8359 306.867 94.1797C308.398 93.5078 310.18 93.1719 312.211 93.1719C314.008 93.1719 315.617 93.4609 317.039 94.0391C318.461 94.6172 319.664 95.4453 320.648 96.5234C321.648 97.6016 322.406 98.9062 322.922 100.438C323.453 101.969 323.719 103.688 323.719 105.594V108.805H303V103.859H316.008V103.25C316.023 102.406 315.875 101.688 315.562 101.094C315.266 100.5 314.828 100.047 314.25 99.7344C313.672 99.4219 312.969 99.2656 312.141 99.2656C311.281 99.2656 310.57 99.4531 310.008 99.8281C309.461 100.203 309.031 100.719 308.719 101.375C308.422 102.016 308.211 102.758 308.086 103.602C307.961 104.445 307.898 105.336 307.898 106.273V107.164C307.898 108.102 308.023 108.953 308.273 109.719C308.539 110.484 308.914 111.141 309.398 111.688C309.898 112.219 310.492 112.633 311.18 112.93C311.883 113.227 312.68 113.375 313.57 113.375C314.648 113.375 315.711 113.172 316.758 112.766C317.805 112.359 318.703 111.688 319.453 110.75L323.039 115.016C322.523 115.75 321.789 116.461 320.836 117.148C319.898 117.836 318.773 118.398 317.461 118.836C316.148 119.258 314.68 119.469 313.055 119.469ZM341.508 113.188V83H349.453V119H342.328L341.508 113.188ZM325.945 106.625V106.133C325.945 104.211 326.156 102.461 326.578 100.883C327 99.2891 327.625 97.9219 328.453 96.7812C329.281 95.625 330.312 94.7344 331.547 94.1094C332.781 93.4844 334.203 93.1719 335.812 93.1719C337.25 93.1719 338.508 93.5078 339.586 94.1797C340.664 94.8359 341.586 95.7578 342.352 96.9453C343.117 98.1328 343.742 99.5234 344.227 101.117C344.711 102.695 345.078 104.398 345.328 106.227V106.812C345.078 108.531 344.711 110.156 344.227 111.688C343.742 113.203 343.117 114.547 342.352 115.719C341.586 116.891 340.656 117.812 339.562 118.484C338.484 119.141 337.219 119.469 335.766 119.469C334.156 119.469 332.734 119.148 331.5 118.508C330.281 117.867 329.258 116.969 328.43 115.812C327.617 114.656 327 113.297 326.578 111.734C326.156 110.172 325.945 108.469 325.945 106.625ZM333.844 106.133V106.625C333.844 107.578 333.906 108.461 334.031 109.273C334.156 110.086 334.367 110.805 334.664 111.43C334.977 112.039 335.383 112.516 335.883 112.859C336.398 113.203 337.031 113.375 337.781 113.375C338.797 113.375 339.633 113.133 340.289 112.648C340.961 112.164 341.453 111.477 341.766 110.586C342.094 109.695 342.234 108.648 342.188 107.445V105.594C342.219 104.562 342.148 103.656 341.977 102.875C341.805 102.078 341.531 101.414 341.156 100.883C340.797 100.352 340.336 99.9531 339.773 99.6875C339.227 99.4062 338.578 99.2656 337.828 99.2656C337.094 99.2656 336.469 99.4375 335.953 99.7812C335.453 100.125 335.047 100.609 334.734 101.234C334.422 101.844 334.195 102.57 334.055 103.414C333.914 104.242 333.844 105.148 333.844 106.133ZM380.719 92.0469L372.398 119H363.562L376.102 84.875H381.703L380.719 92.0469ZM387.609 119L379.266 92.0469L378.188 84.875H383.859L396.469 119H387.609ZM387.281 106.273V112.625H369.773V106.273H387.281ZM405.445 98.5156V128.75H397.547V93.6406H404.906L405.445 98.5156ZM421.008 106.016V106.508C421.008 108.352 420.797 110.062 420.375 111.641C419.953 113.219 419.328 114.594 418.5 115.766C417.672 116.938 416.641 117.852 415.406 118.508C414.188 119.148 412.773 119.469 411.164 119.469C409.648 119.469 408.344 119.133 407.25 118.461C406.156 117.789 405.242 116.859 404.508 115.672C403.773 114.484 403.18 113.125 402.727 111.594C402.273 110.062 401.914 108.445 401.648 106.742V106.109C401.914 104.281 402.273 102.586 402.727 101.023C403.18 99.4453 403.773 98.0703 404.508 96.8984C405.242 95.7266 406.148 94.8125 407.227 94.1562C408.32 93.5 409.625 93.1719 411.141 93.1719C412.75 93.1719 414.164 93.4766 415.383 94.0859C416.617 94.6953 417.648 95.5703 418.477 96.7109C419.32 97.8359 419.953 99.1875 420.375 100.766C420.797 102.344 421.008 104.094 421.008 106.016ZM413.109 106.508V106.016C413.109 105.031 413.039 104.133 412.898 103.32C412.758 102.492 412.531 101.773 412.219 101.164C411.922 100.555 411.523 100.086 411.023 99.7578C410.523 99.4297 409.906 99.2656 409.172 99.2656C408.328 99.2656 407.617 99.3984 407.039 99.6641C406.477 99.9141 406.023 100.305 405.68 100.836C405.352 101.352 405.117 102 404.977 102.781C404.852 103.547 404.797 104.445 404.812 105.477V107.398C404.781 108.586 404.898 109.633 405.164 110.539C405.43 111.43 405.891 112.125 406.547 112.625C407.203 113.125 408.094 113.375 409.219 113.375C409.969 113.375 410.594 113.203 411.094 112.859C411.594 112.5 411.992 112.008 412.289 111.383C412.586 110.742 412.797 110.008 412.922 109.18C413.047 108.352 413.109 107.461 413.109 106.508ZM432.492 98.5156V128.75H424.594V93.6406H431.953L432.492 98.5156ZM448.055 106.016V106.508C448.055 108.352 447.844 110.062 447.422 111.641C447 113.219 446.375 114.594 445.547 115.766C444.719 116.938 443.688 117.852 442.453 118.508C441.234 119.148 439.82 119.469 438.211 119.469C436.695 119.469 435.391 119.133 434.297 118.461C433.203 117.789 432.289 116.859 431.555 115.672C430.82 114.484 430.227 113.125 429.773 111.594C429.32 110.062 428.961 108.445 428.695 106.742V106.109C428.961 104.281 429.32 102.586 429.773 101.023C430.227 99.4453 430.82 98.0703 431.555 96.8984C432.289 95.7266 433.195 94.8125 434.273 94.1562C435.367 93.5 436.672 93.1719 438.188 93.1719C439.797 93.1719 441.211 93.4766 442.43 94.0859C443.664 94.6953 444.695 95.5703 445.523 96.7109C446.367 97.8359 447 99.1875 447.422 100.766C447.844 102.344 448.055 104.094 448.055 106.016ZM440.156 106.508V106.016C440.156 105.031 440.086 104.133 439.945 103.32C439.805 102.492 439.578 101.773 439.266 101.164C438.969 100.555 438.57 100.086 438.07 99.7578C437.57 99.4297 436.953 99.2656 436.219 99.2656C435.375 99.2656 434.664 99.3984 434.086 99.6641C433.523 99.9141 433.07 100.305 432.727 100.836C432.398 101.352 432.164 102 432.023 102.781C431.898 103.547 431.844 104.445 431.859 105.477V107.398C431.828 108.586 431.945 109.633 432.211 110.539C432.477 111.43 432.938 112.125 433.594 112.625C434.25 113.125 435.141 113.375 436.266 113.375C437.016 113.375 437.641 113.203 438.141 112.859C438.641 112.5 439.039 112.008 439.336 111.383C439.633 110.742 439.844 110.008 439.969 109.18C440.094 108.352 440.156 107.461 440.156 106.508Z" fill="black"/>
<path d="M1134 0H1348C1356.28 0 1363 6.71573 1363 15V148C1363 156.284 1356.28 163 1348 163H1134V0Z" fill="#00796B"/>
<path d="M1248.5 70.1666V58.8333H1237.17" stroke="white" stroke-width="5" stroke-linecap="round" stroke-linejoin="round"/>
<path d="M1265.5 70.1667H1231.5C1228.37 70.1667 1225.83 72.7037 1225.83 75.8334V98.5C1225.83 101.63 1228.37 104.167 1231.5 104.167H1265.5C1268.63 104.167 1271.17 101.63 1271.17 98.5V75.8334C1271.17 72.7037 1268.63 70.1667 1265.5 70.1667Z" stroke="white" stroke-width="5" stroke-linecap="round" stroke-linejoin="round"/>
<path d="M1220.17 87.1667H1225.83" stroke="white" stroke-width="5" stroke-linecap="round" stroke-linejoin="round"/>
<path d="M1271.17 87.1667H1276.83" stroke="white" stroke-width="5" stroke-linecap="round" stroke-linejoin="round"/>
<path d="M1257 84.3333V90" stroke="white" stroke-width="5" stroke-linecap="round" stroke-linejoin="round"/>
<path d="M1240 84.3333V90" stroke="white" stroke-width="5" stroke-linecap="round" stroke-linejoin="round"/>
<path d="M96.9062 51.9219L89.3945 49.2383V46.0859L99.6016 50.375V52.6367L96.9062 51.9219ZM89.3945 54.1719L96.918 51.4297L99.6016 50.7852V53.0352L89.3945 57.3242V54.1719ZM116.781 54.5352C116.781 54.2305 116.734 53.957 116.641 53.7148C116.555 53.4648 116.391 53.2383 116.148 53.0352C115.906 52.8242 115.566 52.6172 115.129 52.4141C114.691 52.2109 114.125 52 113.43 51.7812C112.656 51.5312 111.922 51.25 111.227 50.9375C110.539 50.625 109.93 50.2617 109.398 49.8477C108.875 49.4258 108.461 48.9375 108.156 48.3828C107.859 47.8281 107.711 47.1836 107.711 46.4492C107.711 45.7383 107.867 45.0938 108.18 44.5156C108.492 43.9297 108.93 43.4297 109.492 43.0156C110.055 42.5938 110.719 42.2695 111.484 42.043C112.258 41.8164 113.105 41.7031 114.027 41.7031C115.285 41.7031 116.383 41.9297 117.32 42.3828C118.258 42.8359 118.984 43.457 119.5 44.2461C120.023 45.0352 120.285 45.9375 120.285 46.9531H116.793C116.793 46.4531 116.688 46.0156 116.477 45.6406C116.273 45.2578 115.961 44.957 115.539 44.7383C115.125 44.5195 114.602 44.4102 113.969 44.4102C113.359 44.4102 112.852 44.5039 112.445 44.6914C112.039 44.8711 111.734 45.1172 111.531 45.4297C111.328 45.7344 111.227 46.0781 111.227 46.4609C111.227 46.75 111.297 47.0117 111.438 47.2461C111.586 47.4805 111.805 47.6992 112.094 47.9023C112.383 48.1055 112.738 48.2969 113.16 48.4766C113.582 48.6562 114.07 48.832 114.625 49.0039C115.555 49.2852 116.371 49.6016 117.074 49.9531C117.785 50.3047 118.379 50.6992 118.855 51.1367C119.332 51.5742 119.691 52.0703 119.934 52.625C120.176 53.1797 120.297 53.8086 120.297 54.5117C120.297 55.2539 120.152 55.918 119.863 56.5039C119.574 57.0898 119.156 57.5859 118.609 57.9922C118.062 58.3984 117.41 58.707 116.652 58.918C115.895 59.1289 115.047 59.2344 114.109 59.2344C113.266 59.2344 112.434 59.125 111.613 58.9062C110.793 58.6797 110.047 58.3398 109.375 57.8867C108.711 57.4336 108.18 56.8555 107.781 56.1523C107.383 55.4492 107.184 54.6172 107.184 53.6562H110.711C110.711 54.1875 110.793 54.6367 110.957 55.0039C111.121 55.3711 111.352 55.668 111.648 55.8945C111.953 56.1211 112.312 56.2852 112.727 56.3867C113.148 56.4883 113.609 56.5391 114.109 56.5391C114.719 56.5391 115.219 56.4531 115.609 56.2812C116.008 56.1094 116.301 55.8711 116.488 55.5664C116.684 55.2617 116.781 54.918 116.781 54.5352ZM128.688 46.3203V48.7109H121.305V46.3203H128.688ZM123.133 43.1914H126.508V55.1797C126.508 55.5469 126.555 55.8281 126.648 56.0234C126.75 56.2188 126.898 56.3555 127.094 56.4336C127.289 56.5039 127.535 56.5391 127.832 56.5391C128.043 56.5391 128.23 56.5312 128.395 56.5156C128.566 56.4922 128.711 56.4688 128.828 56.4453L128.84 58.9297C128.551 59.0234 128.238 59.0977 127.902 59.1523C127.566 59.207 127.195 59.2344 126.789 59.2344C126.047 59.2344 125.398 59.1133 124.844 58.8711C124.297 58.6211 123.875 58.2227 123.578 57.6758C123.281 57.1289 123.133 56.4102 123.133 55.5195V43.1914ZM129.766 52.7891V52.543C129.766 51.6133 129.898 50.7578 130.164 49.9766C130.43 49.1875 130.816 48.5039 131.324 47.9258C131.832 47.3477 132.457 46.8984 133.199 46.5781C133.941 46.25 134.793 46.0859 135.754 46.0859C136.715 46.0859 137.57 46.25 138.32 46.5781C139.07 46.8984 139.699 47.3477 140.207 47.9258C140.723 48.5039 141.113 49.1875 141.379 49.9766C141.645 50.7578 141.777 51.6133 141.777 52.543V52.7891C141.777 53.7109 141.645 54.5664 141.379 55.3555C141.113 56.1367 140.723 56.8203 140.207 57.4062C139.699 57.9844 139.074 58.4336 138.332 58.7539C137.59 59.0742 136.738 59.2344 135.777 59.2344C134.816 59.2344 133.961 59.0742 133.211 58.7539C132.469 58.4336 131.84 57.9844 131.324 57.4062C130.816 56.8203 130.43 56.1367 130.164 55.3555C129.898 54.5664 129.766 53.7109 129.766 52.7891ZM133.141 52.543V52.7891C133.141 53.3203 133.188 53.8164 133.281 54.2773C133.375 54.7383 133.523 55.1445 133.727 55.4961C133.938 55.8398 134.211 56.1094 134.547 56.3047C134.883 56.5 135.293 56.5977 135.777 56.5977C136.246 56.5977 136.648 56.5 136.984 56.3047C137.32 56.1094 137.59 55.8398 137.793 55.4961C137.996 55.1445 138.145 54.7383 138.238 54.2773C138.34 53.8164 138.391 53.3203 138.391 52.7891V52.543C138.391 52.0273 138.34 51.543 138.238 51.0898C138.145 50.6289 137.992 50.2227 137.781 49.8711C137.578 49.5117 137.309 49.2305 136.973 49.0273C136.637 48.8242 136.23 48.7227 135.754 48.7227C135.277 48.7227 134.871 48.8242 134.535 49.0273C134.207 49.2305 133.938 49.5117 133.727 49.8711C133.523 50.2227 133.375 50.6289 133.281 51.0898C133.188 51.543 133.141 52.0273 133.141 52.543ZM149.09 56.5977C149.504 56.5977 149.871 56.5195 150.191 56.3633C150.512 56.1992 150.762 55.9727 150.941 55.6836C151.129 55.3867 151.227 55.0391 151.234 54.6406H154.41C154.402 55.5312 154.164 56.3242 153.695 57.0195C153.227 57.707 152.598 58.25 151.809 58.6484C151.02 59.0391 150.137 59.2344 149.16 59.2344C148.176 59.2344 147.316 59.0703 146.582 58.7422C145.855 58.4141 145.25 57.9609 144.766 57.3828C144.281 56.7969 143.918 56.1172 143.676 55.3438C143.434 54.5625 143.312 53.7266 143.312 52.8359V52.4961C143.312 51.5977 143.434 50.7617 143.676 49.9883C143.918 49.207 144.281 48.5273 144.766 47.9492C145.25 47.3633 145.855 46.9062 146.582 46.5781C147.309 46.25 148.16 46.0859 149.137 46.0859C150.176 46.0859 151.086 46.2852 151.867 46.6836C152.656 47.082 153.273 47.6523 153.719 48.3945C154.172 49.1289 154.402 50 154.41 51.0078H151.234C151.227 50.5859 151.137 50.2031 150.965 49.8594C150.801 49.5156 150.559 49.2422 150.238 49.0391C149.926 48.8281 149.539 48.7227 149.078 48.7227C148.586 48.7227 148.184 48.8281 147.871 49.0391C147.559 49.2422 147.316 49.5234 147.145 49.8828C146.973 50.2344 146.852 50.6367 146.781 51.0898C146.719 51.5352 146.688 52.0039 146.688 52.4961V52.8359C146.688 53.3281 146.719 53.8008 146.781 54.2539C146.844 54.707 146.961 55.1094 147.133 55.4609C147.312 55.8125 147.559 56.0898 147.871 56.293C148.184 56.4961 148.59 56.5977 149.09 56.5977ZM159.742 40.9883V59H156.367V40.9883H159.742ZM167.734 46.3203L162.227 52.6016L159.273 55.5898L158.043 53.1523L160.387 50.1758L163.68 46.3203H167.734ZM164.23 59L160.48 53.1406L162.812 51.1016L168.121 59H164.23ZM177.027 41.9375V59H173.523V41.9375H177.027ZM182.277 41.9375V44.6914H168.355V41.9375H182.277ZM181.492 52.7891V52.543C181.492 51.6133 181.625 50.7578 181.891 49.9766C182.156 49.1875 182.543 48.5039 183.051 47.9258C183.559 47.3477 184.184 46.8984 184.926 46.5781C185.668 46.25 186.52 46.0859 187.48 46.0859C188.441 46.0859 189.297 46.25 190.047 46.5781C190.797 46.8984 191.426 47.3477 191.934 47.9258C192.449 48.5039 192.84 49.1875 193.105 49.9766C193.371 50.7578 193.504 51.6133 193.504 52.543V52.7891C193.504 53.7109 193.371 54.5664 193.105 55.3555C192.84 56.1367 192.449 56.8203 191.934 57.4062C191.426 57.9844 190.801 58.4336 190.059 58.7539C189.316 59.0742 188.465 59.2344 187.504 59.2344C186.543 59.2344 185.688 59.0742 184.938 58.7539C184.195 58.4336 183.566 57.9844 183.051 57.4062C182.543 56.8203 182.156 56.1367 181.891 55.3555C181.625 54.5664 181.492 53.7109 181.492 52.7891ZM184.867 52.543V52.7891C184.867 53.3203 184.914 53.8164 185.008 54.2773C185.102 54.7383 185.25 55.1445 185.453 55.4961C185.664 55.8398 185.938 56.1094 186.273 56.3047C186.609 56.5 187.02 56.5977 187.504 56.5977C187.973 56.5977 188.375 56.5 188.711 56.3047C189.047 56.1094 189.316 55.8398 189.52 55.4961C189.723 55.1445 189.871 54.7383 189.965 54.2773C190.066 53.8164 190.117 53.3203 190.117 52.7891V52.543C190.117 52.0273 190.066 51.543 189.965 51.0898C189.871 50.6289 189.719 50.2227 189.508 49.8711C189.305 49.5117 189.035 49.2305 188.699 49.0273C188.363 48.8242 187.957 48.7227 187.48 48.7227C187.004 48.7227 186.598 48.8242 186.262 49.0273C185.934 49.2305 185.664 49.5117 185.453 49.8711C185.25 50.2227 185.102 50.6289 185.008 51.0898C184.914 51.543 184.867 52.0273 184.867 52.543ZM198.953 40.9883V59H195.578V40.9883H198.953ZM206.945 46.3203L201.438 52.6016L198.484 55.5898L197.254 53.1523L199.598 50.1758L202.891 46.3203H206.945ZM203.441 59L199.691 53.1406L202.023 51.1016L207.332 59H203.441Z" fill="#888888"/>
</g>
<defs>
<clipPath id="clip0_410_2">
<rect width="1363" height="163" fill="white"/>
</clipPath>
</defs>
</svg>
