<svg width="1363" height="163" viewBox="0 0 1363 163" fill="none" xmlns="http://www.w3.org/2000/svg">
<path d="M0 15C0 6.71573 6.71573 0 15 0H37V163H15C6.71573 163 0 156.284 0 148V15Z" fill="#424242"/>
<rect width="1097" height="163" transform="translate(37)" fill="#F0F0F0"/>
<path d="M101.906 53.9219L94.3945 51.2383V48.0859L104.602 52.375V54.6367L101.906 53.9219ZM94.3945 56.1719L101.918 53.4297L104.602 52.7852V55.0352L94.3945 59.3242V56.1719ZM121.781 56.5352C121.781 56.2305 121.734 55.957 121.641 55.7148C121.555 55.4648 121.391 55.2383 121.148 55.0352C120.906 54.8242 120.566 54.6172 120.129 54.4141C119.691 54.2109 119.125 54 118.43 53.7812C117.656 53.5312 116.922 53.25 116.227 52.9375C115.539 52.625 114.93 52.2617 114.398 51.8477C113.875 51.4258 113.461 50.9375 113.156 50.3828C112.859 49.8281 112.711 49.1836 112.711 48.4492C112.711 47.7383 112.867 47.0938 113.18 46.5156C113.492 45.9297 113.93 45.4297 114.492 45.0156C115.055 44.5938 115.719 44.2695 116.484 44.043C117.258 43.8164 118.105 43.7031 119.027 43.7031C120.285 43.7031 121.383 43.9297 122.32 44.3828C123.258 44.8359 123.984 45.457 124.5 46.2461C125.023 47.0352 125.285 47.9375 125.285 48.9531H121.793C121.793 48.4531 121.688 48.0156 121.477 47.6406C121.273 47.2578 120.961 46.957 120.539 46.7383C120.125 46.5195 119.602 46.4102 118.969 46.4102C118.359 46.4102 117.852 46.5039 117.445 46.6914C117.039 46.8711 116.734 47.1172 116.531 47.4297C116.328 47.7344 116.227 48.0781 116.227 48.4609C116.227 48.75 116.297 49.0117 116.438 49.2461C116.586 49.4805 116.805 49.6992 117.094 49.9023C117.383 50.1055 117.738 50.2969 118.16 50.4766C118.582 50.6562 119.07 50.832 119.625 51.0039C120.555 51.2852 121.371 51.6016 122.074 51.9531C122.785 52.3047 123.379 52.6992 123.855 53.1367C124.332 53.5742 124.691 54.0703 124.934 54.625C125.176 55.1797 125.297 55.8086 125.297 56.5117C125.297 57.2539 125.152 57.918 124.863 58.5039C124.574 59.0898 124.156 59.5859 123.609 59.9922C123.062 60.3984 122.41 60.707 121.652 60.918C120.895 61.1289 120.047 61.2344 119.109 61.2344C118.266 61.2344 117.434 61.125 116.613 60.9062C115.793 60.6797 115.047 60.3398 114.375 59.8867C113.711 59.4336 113.18 58.8555 112.781 58.1523C112.383 57.4492 112.184 56.6172 112.184 55.6562H115.711C115.711 56.1875 115.793 56.6367 115.957 57.0039C116.121 57.3711 116.352 57.668 116.648 57.8945C116.953 58.1211 117.312 58.2852 117.727 58.3867C118.148 58.4883 118.609 58.5391 119.109 58.5391C119.719 58.5391 120.219 58.4531 120.609 58.2812C121.008 58.1094 121.301 57.8711 121.488 57.5664C121.684 57.2617 121.781 56.918 121.781 56.5352ZM133.688 48.3203V50.7109H126.305V48.3203H133.688ZM128.133 45.1914H131.508V57.1797C131.508 57.5469 131.555 57.8281 131.648 58.0234C131.75 58.2188 131.898 58.3555 132.094 58.4336C132.289 58.5039 132.535 58.5391 132.832 58.5391C133.043 58.5391 133.23 58.5312 133.395 58.5156C133.566 58.4922 133.711 58.4688 133.828 58.4453L133.84 60.9297C133.551 61.0234 133.238 61.0977 132.902 61.1523C132.566 61.207 132.195 61.2344 131.789 61.2344C131.047 61.2344 130.398 61.1133 129.844 60.8711C129.297 60.6211 128.875 60.2227 128.578 59.6758C128.281 59.1289 128.133 58.4102 128.133 57.5195V45.1914ZM134.766 54.7891V54.543C134.766 53.6133 134.898 52.7578 135.164 51.9766C135.43 51.1875 135.816 50.5039 136.324 49.9258C136.832 49.3477 137.457 48.8984 138.199 48.5781C138.941 48.25 139.793 48.0859 140.754 48.0859C141.715 48.0859 142.57 48.25 143.32 48.5781C144.07 48.8984 144.699 49.3477 145.207 49.9258C145.723 50.5039 146.113 51.1875 146.379 51.9766C146.645 52.7578 146.777 53.6133 146.777 54.543V54.7891C146.777 55.7109 146.645 56.5664 146.379 57.3555C146.113 58.1367 145.723 58.8203 145.207 59.4062C144.699 59.9844 144.074 60.4336 143.332 60.7539C142.59 61.0742 141.738 61.2344 140.777 61.2344C139.816 61.2344 138.961 61.0742 138.211 60.7539C137.469 60.4336 136.84 59.9844 136.324 59.4062C135.816 58.8203 135.43 58.1367 135.164 57.3555C134.898 56.5664 134.766 55.7109 134.766 54.7891ZM138.141 54.543V54.7891C138.141 55.3203 138.188 55.8164 138.281 56.2773C138.375 56.7383 138.523 57.1445 138.727 57.4961C138.938 57.8398 139.211 58.1094 139.547 58.3047C139.883 58.5 140.293 58.5977 140.777 58.5977C141.246 58.5977 141.648 58.5 141.984 58.3047C142.32 58.1094 142.59 57.8398 142.793 57.4961C142.996 57.1445 143.145 56.7383 143.238 56.2773C143.34 55.8164 143.391 55.3203 143.391 54.7891V54.543C143.391 54.0273 143.34 53.543 143.238 53.0898C143.145 52.6289 142.992 52.2227 142.781 51.8711C142.578 51.5117 142.309 51.2305 141.973 51.0273C141.637 50.8242 141.23 50.7227 140.754 50.7227C140.277 50.7227 139.871 50.8242 139.535 51.0273C139.207 51.2305 138.938 51.5117 138.727 51.8711C138.523 52.2227 138.375 52.6289 138.281 53.0898C138.188 53.543 138.141 54.0273 138.141 54.543ZM154.09 58.5977C154.504 58.5977 154.871 58.5195 155.191 58.3633C155.512 58.1992 155.762 57.9727 155.941 57.6836C156.129 57.3867 156.227 57.0391 156.234 56.6406H159.41C159.402 57.5312 159.164 58.3242 158.695 59.0195C158.227 59.707 157.598 60.25 156.809 60.6484C156.02 61.0391 155.137 61.2344 154.16 61.2344C153.176 61.2344 152.316 61.0703 151.582 60.7422C150.855 60.4141 150.25 59.9609 149.766 59.3828C149.281 58.7969 148.918 58.1172 148.676 57.3438C148.434 56.5625 148.312 55.7266 148.312 54.8359V54.4961C148.312 53.5977 148.434 52.7617 148.676 51.9883C148.918 51.207 149.281 50.5273 149.766 49.9492C150.25 49.3633 150.855 48.9062 151.582 48.5781C152.309 48.25 153.16 48.0859 154.137 48.0859C155.176 48.0859 156.086 48.2852 156.867 48.6836C157.656 49.082 158.273 49.6523 158.719 50.3945C159.172 51.1289 159.402 52 159.41 53.0078H156.234C156.227 52.5859 156.137 52.2031 155.965 51.8594C155.801 51.5156 155.559 51.2422 155.238 51.0391C154.926 50.8281 154.539 50.7227 154.078 50.7227C153.586 50.7227 153.184 50.8281 152.871 51.0391C152.559 51.2422 152.316 51.5234 152.145 51.8828C151.973 52.2344 151.852 52.6367 151.781 53.0898C151.719 53.5352 151.688 54.0039 151.688 54.4961V54.8359C151.688 55.3281 151.719 55.8008 151.781 56.2539C151.844 56.707 151.961 57.1094 152.133 57.4609C152.312 57.8125 152.559 58.0898 152.871 58.293C153.184 58.4961 153.59 58.5977 154.09 58.5977ZM164.742 42.9883V61H161.367V42.9883H164.742ZM172.734 48.3203L167.227 54.6016L164.273 57.5898L163.043 55.1523L165.387 52.1758L168.68 48.3203H172.734ZM169.23 61L165.48 55.1406L167.812 53.1016L173.121 61H169.23ZM182.027 43.9375V61H178.523V43.9375H182.027ZM187.277 43.9375V46.6914H173.355V43.9375H187.277ZM186.492 54.7891V54.543C186.492 53.6133 186.625 52.7578 186.891 51.9766C187.156 51.1875 187.543 50.5039 188.051 49.9258C188.559 49.3477 189.184 48.8984 189.926 48.5781C190.668 48.25 191.52 48.0859 192.48 48.0859C193.441 48.0859 194.297 48.25 195.047 48.5781C195.797 48.8984 196.426 49.3477 196.934 49.9258C197.449 50.5039 197.84 51.1875 198.105 51.9766C198.371 52.7578 198.504 53.6133 198.504 54.543V54.7891C198.504 55.7109 198.371 56.5664 198.105 57.3555C197.84 58.1367 197.449 58.8203 196.934 59.4062C196.426 59.9844 195.801 60.4336 195.059 60.7539C194.316 61.0742 193.465 61.2344 192.504 61.2344C191.543 61.2344 190.688 61.0742 189.938 60.7539C189.195 60.4336 188.566 59.9844 188.051 59.4062C187.543 58.8203 187.156 58.1367 186.891 57.3555C186.625 56.5664 186.492 55.7109 186.492 54.7891ZM189.867 54.543V54.7891C189.867 55.3203 189.914 55.8164 190.008 56.2773C190.102 56.7383 190.25 57.1445 190.453 57.4961C190.664 57.8398 190.938 58.1094 191.273 58.3047C191.609 58.5 192.02 58.5977 192.504 58.5977C192.973 58.5977 193.375 58.5 193.711 58.3047C194.047 58.1094 194.316 57.8398 194.52 57.4961C194.723 57.1445 194.871 56.7383 194.965 56.2773C195.066 55.8164 195.117 55.3203 195.117 54.7891V54.543C195.117 54.0273 195.066 53.543 194.965 53.0898C194.871 52.6289 194.719 52.2227 194.508 51.8711C194.305 51.5117 194.035 51.2305 193.699 51.0273C193.363 50.8242 192.957 50.7227 192.48 50.7227C192.004 50.7227 191.598 50.8242 191.262 51.0273C190.934 51.2305 190.664 51.5117 190.453 51.8711C190.25 52.2227 190.102 52.6289 190.008 53.0898C189.914 53.543 189.867 54.0273 189.867 54.543ZM203.953 42.9883V61H200.578V42.9883H203.953ZM211.945 48.3203L206.438 54.6016L203.484 57.5898L202.254 55.1523L204.598 52.1758L207.891 48.3203H211.945ZM208.441 61L204.691 55.1406L207.023 53.1016L212.332 61H208.441Z" fill="#888888"/>
<path d="M106.688 119H99.1172L99.1641 112.672H106.688C108.25 112.672 109.57 112.297 110.648 111.547C111.742 110.797 112.57 109.68 113.133 108.195C113.711 106.695 114 104.852 114 102.664V101.188C114 99.5469 113.836 98.1094 113.508 96.875C113.195 95.625 112.727 94.5859 112.102 93.7578C111.477 92.9141 110.695 92.2812 109.758 91.8594C108.836 91.4375 107.773 91.2266 106.57 91.2266H98.9766V84.875H106.57C108.883 84.875 111 85.2734 112.922 86.0703C114.859 86.8516 116.531 87.9766 117.938 89.4453C119.359 90.8984 120.453 92.625 121.219 94.625C122 96.6094 122.391 98.8125 122.391 101.234V102.664C122.391 105.07 122 107.273 121.219 109.273C120.453 111.273 119.367 113 117.961 114.453C116.555 115.906 114.891 117.031 112.969 117.828C111.062 118.609 108.969 119 106.688 119ZM103.828 84.875V119H95.6016V84.875H103.828ZM138.586 119.469C136.523 119.469 134.68 119.148 133.055 118.508C131.43 117.852 130.055 116.953 128.93 115.812C127.82 114.672 126.969 113.359 126.375 111.875C125.797 110.391 125.508 108.82 125.508 107.164V106.273C125.508 104.414 125.766 102.695 126.281 101.117C126.797 99.5234 127.562 98.1328 128.578 96.9453C129.594 95.7578 130.867 94.8359 132.398 94.1797C133.93 93.5078 135.711 93.1719 137.742 93.1719C139.539 93.1719 141.148 93.4609 142.57 94.0391C143.992 94.6172 145.195 95.4453 146.18 96.5234C147.18 97.6016 147.938 98.9062 148.453 100.438C148.984 101.969 149.25 103.688 149.25 105.594V108.805H128.531V103.859H141.539V103.25C141.555 102.406 141.406 101.688 141.094 101.094C140.797 100.5 140.359 100.047 139.781 99.7344C139.203 99.4219 138.5 99.2656 137.672 99.2656C136.812 99.2656 136.102 99.4531 135.539 99.8281C134.992 100.203 134.562 100.719 134.25 101.375C133.953 102.016 133.742 102.758 133.617 103.602C133.492 104.445 133.43 105.336 133.43 106.273V107.164C133.43 108.102 133.555 108.953 133.805 109.719C134.07 110.484 134.445 111.141 134.93 111.688C135.43 112.219 136.023 112.633 136.711 112.93C137.414 113.227 138.211 113.375 139.102 113.375C140.18 113.375 141.242 113.172 142.289 112.766C143.336 112.359 144.234 111.688 144.984 110.75L148.57 115.016C148.055 115.75 147.32 116.461 146.367 117.148C145.43 117.836 144.305 118.398 142.992 118.836C141.68 119.258 140.211 119.469 138.586 119.469ZM160.43 99.0078V119H152.531V93.6406H159.938L160.43 99.0078ZM159.469 105.453L157.664 105.5C157.664 103.719 157.875 102.078 158.297 100.578C158.719 99.0781 159.344 97.7734 160.172 96.6641C161 95.5547 162.016 94.6953 163.219 94.0859C164.438 93.4766 165.844 93.1719 167.438 93.1719C168.547 93.1719 169.555 93.3438 170.461 93.6875C171.367 94.0156 172.148 94.5391 172.805 95.2578C173.461 95.9609 173.961 96.8828 174.305 98.0234C174.664 99.1484 174.844 100.5 174.844 102.078V119H166.945V103.086C166.945 102.008 166.82 101.195 166.57 100.648C166.336 100.102 165.992 99.7344 165.539 99.5469C165.086 99.3594 164.531 99.2656 163.875 99.2656C163.188 99.2656 162.57 99.4219 162.023 99.7344C161.477 100.047 161.008 100.484 160.617 101.047C160.242 101.594 159.953 102.242 159.75 102.992C159.562 103.742 159.469 104.562 159.469 105.453ZM173.953 105.453L171.75 105.5C171.75 103.719 171.945 102.078 172.336 100.578C172.742 99.0781 173.344 97.7734 174.141 96.6641C174.953 95.5547 175.961 94.6953 177.164 94.0859C178.367 93.4766 179.766 93.1719 181.359 93.1719C182.516 93.1719 183.578 93.3438 184.547 93.6875C185.516 94.0312 186.352 94.5859 187.055 95.3516C187.758 96.1172 188.305 97.1328 188.695 98.3984C189.086 99.6484 189.281 101.195 189.281 103.039V119H181.359V103.039C181.359 101.992 181.234 101.203 180.984 100.672C180.75 100.125 180.406 99.7578 179.953 99.5703C179.5 99.3672 178.961 99.2656 178.336 99.2656C177.586 99.2656 176.938 99.4219 176.391 99.7344C175.844 100.047 175.383 100.484 175.008 101.047C174.648 101.594 174.383 102.242 174.211 102.992C174.039 103.742 173.953 104.562 173.953 105.453ZM192.82 106.578V106.086C192.82 104.227 193.086 102.516 193.617 100.953C194.148 99.375 194.93 98.0078 195.961 96.8516C196.992 95.6953 198.266 94.7969 199.781 94.1562C201.297 93.5 203.047 93.1719 205.031 93.1719C207.031 93.1719 208.789 93.5 210.305 94.1562C211.836 94.7969 213.117 95.6953 214.148 96.8516C215.18 98.0078 215.961 99.375 216.492 100.953C217.023 102.516 217.289 104.227 217.289 106.086V106.578C217.289 108.422 217.023 110.133 216.492 111.711C215.961 113.273 215.18 114.641 214.148 115.812C213.117 116.969 211.844 117.867 210.328 118.508C208.812 119.148 207.062 119.469 205.078 119.469C203.094 119.469 201.336 119.148 199.805 118.508C198.273 117.867 196.992 116.969 195.961 115.812C194.93 114.641 194.148 113.273 193.617 111.711C193.086 110.133 192.82 108.422 192.82 106.578ZM200.719 106.086V106.578C200.719 107.531 200.789 108.422 200.93 109.25C201.07 110.078 201.305 110.805 201.633 111.43C201.961 112.039 202.406 112.516 202.969 112.859C203.531 113.203 204.234 113.375 205.078 113.375C205.906 113.375 206.594 113.203 207.141 112.859C207.703 112.516 208.148 112.039 208.477 111.43C208.805 110.805 209.039 110.078 209.18 109.25C209.32 108.422 209.391 107.531 209.391 106.578V106.086C209.391 105.164 209.32 104.297 209.18 103.484C209.039 102.656 208.805 101.93 208.477 101.305C208.148 100.664 207.703 100.164 207.141 99.8047C206.578 99.4453 205.875 99.2656 205.031 99.2656C204.203 99.2656 203.508 99.4453 202.945 99.8047C202.398 100.164 201.961 100.664 201.633 101.305C201.305 101.93 201.07 102.656 200.93 103.484C200.789 104.297 200.719 105.164 200.719 106.086Z" fill="black"/>
<path d="M1134 0H1348C1356.28 0 1363 6.71573 1363 15V148C1363 156.284 1356.28 163 1348 163H1134V0Z" fill="#00796B"/>
<path d="M1280.07 47.5H1216.93L1214.5 49.9286V113.071L1216.93 115.5H1280.07L1282.5 113.071V49.9286L1280.07 47.5ZM1277.64 110.643H1233.93V100.929H1245.1C1246.56 103.843 1249.96 105.786 1253.36 105.786C1258.7 105.786 1263.07 101.414 1263.07 96.0714C1263.07 90.7286 1258.7 86.3571 1253.36 86.3571C1248.01 86.3571 1243.64 90.7286 1243.64 96.0714H1229.07V110.643H1219.36V52.3571H1229.07V63.5286C1226.16 64.9857 1224.21 68.3857 1224.21 71.7857C1224.21 77.1286 1228.59 81.5 1233.93 81.5C1239.27 81.5 1243.64 77.1286 1243.64 71.7857H1253.36C1253.36 77.1286 1257.73 81.5 1263.07 81.5C1268.41 81.5 1272.79 77.1286 1272.79 71.7857C1272.79 66.4429 1268.41 62.0714 1263.07 62.0714C1259.67 62.0714 1256.27 64.0143 1254.81 66.9286H1242.19C1240.73 64.0143 1237.33 62.0714 1233.93 62.0714V52.3571H1277.64V110.643ZM1248.5 96.0714C1248.5 93.1571 1250.44 91.2143 1253.36 91.2143C1256.27 91.2143 1258.21 93.1571 1258.21 96.0714C1258.21 98.9857 1256.27 100.929 1253.36 100.929C1250.44 100.929 1248.5 98.9857 1248.5 96.0714ZM1233.93 66.9286C1236.84 66.9286 1238.79 68.8714 1238.79 71.7857C1238.79 74.7 1236.84 76.6429 1233.93 76.6429C1231.01 76.6429 1229.07 74.7 1229.07 71.7857C1229.07 68.8714 1231.01 66.9286 1233.93 66.9286ZM1263.07 66.9286C1265.99 66.9286 1267.93 68.8714 1267.93 71.7857C1267.93 74.7 1265.99 76.6429 1263.07 76.6429C1260.16 76.6429 1258.21 74.7 1258.21 71.7857C1258.21 68.8714 1260.16 66.9286 1263.07 66.9286Z" fill="white"/>
</svg>
