<svg width="1363" height="163" viewBox="0 0 1363 163" fill="none" xmlns="http://www.w3.org/2000/svg">
<path d="M0 15C0 6.71573 6.71573 0 15 0H37V163H15C6.71573 163 0 156.284 0 148V15Z" fill="#424242"/>
<rect width="1097" height="163" transform="translate(37)" fill="#F0F0F0"/>
<path d="M101.906 53.9219L94.3945 51.2383V48.0859L104.602 52.375V54.6367L101.906 53.9219ZM94.3945 56.1719L101.918 53.4297L104.602 52.7852V55.0352L94.3945 59.3242V56.1719ZM121.781 56.5352C121.781 56.2305 121.734 55.957 121.641 55.7148C121.555 55.4648 121.391 55.2383 121.148 55.0352C120.906 54.8242 120.566 54.6172 120.129 54.4141C119.691 54.2109 119.125 54 118.43 53.7812C117.656 53.5312 116.922 53.25 116.227 52.9375C115.539 52.625 114.93 52.2617 114.398 51.8477C113.875 51.4258 113.461 50.9375 113.156 50.3828C112.859 49.8281 112.711 49.1836 112.711 48.4492C112.711 47.7383 112.867 47.0938 113.18 46.5156C113.492 45.9297 113.93 45.4297 114.492 45.0156C115.055 44.5938 115.719 44.2695 116.484 44.043C117.258 43.8164 118.105 43.7031 119.027 43.7031C120.285 43.7031 121.383 43.9297 122.32 44.3828C123.258 44.8359 123.984 45.457 124.5 46.2461C125.023 47.0352 125.285 47.9375 125.285 48.9531H121.793C121.793 48.4531 121.688 48.0156 121.477 47.6406C121.273 47.2578 120.961 46.957 120.539 46.7383C120.125 46.5195 119.602 46.4102 118.969 46.4102C118.359 46.4102 117.852 46.5039 117.445 46.6914C117.039 46.8711 116.734 47.1172 116.531 47.4297C116.328 47.7344 116.227 48.0781 116.227 48.4609C116.227 48.75 116.297 49.0117 116.438 49.2461C116.586 49.4805 116.805 49.6992 117.094 49.9023C117.383 50.1055 117.738 50.2969 118.16 50.4766C118.582 50.6562 119.07 50.832 119.625 51.0039C120.555 51.2852 121.371 51.6016 122.074 51.9531C122.785 52.3047 123.379 52.6992 123.855 53.1367C124.332 53.5742 124.691 54.0703 124.934 54.625C125.176 55.1797 125.297 55.8086 125.297 56.5117C125.297 57.2539 125.152 57.918 124.863 58.5039C124.574 59.0898 124.156 59.5859 123.609 59.9922C123.062 60.3984 122.41 60.707 121.652 60.918C120.895 61.1289 120.047 61.2344 119.109 61.2344C118.266 61.2344 117.434 61.125 116.613 60.9062C115.793 60.6797 115.047 60.3398 114.375 59.8867C113.711 59.4336 113.18 58.8555 112.781 58.1523C112.383 57.4492 112.184 56.6172 112.184 55.6562H115.711C115.711 56.1875 115.793 56.6367 115.957 57.0039C116.121 57.3711 116.352 57.668 116.648 57.8945C116.953 58.1211 117.312 58.2852 117.727 58.3867C118.148 58.4883 118.609 58.5391 119.109 58.5391C119.719 58.5391 120.219 58.4531 120.609 58.2812C121.008 58.1094 121.301 57.8711 121.488 57.5664C121.684 57.2617 121.781 56.918 121.781 56.5352ZM133.688 48.3203V50.7109H126.305V48.3203H133.688ZM128.133 45.1914H131.508V57.1797C131.508 57.5469 131.555 57.8281 131.648 58.0234C131.75 58.2188 131.898 58.3555 132.094 58.4336C132.289 58.5039 132.535 58.5391 132.832 58.5391C133.043 58.5391 133.23 58.5312 133.395 58.5156C133.566 58.4922 133.711 58.4688 133.828 58.4453L133.84 60.9297C133.551 61.0234 133.238 61.0977 132.902 61.1523C132.566 61.207 132.195 61.2344 131.789 61.2344C131.047 61.2344 130.398 61.1133 129.844 60.8711C129.297 60.6211 128.875 60.2227 128.578 59.6758C128.281 59.1289 128.133 58.4102 128.133 57.5195V45.1914ZM134.766 54.7891V54.543C134.766 53.6133 134.898 52.7578 135.164 51.9766C135.43 51.1875 135.816 50.5039 136.324 49.9258C136.832 49.3477 137.457 48.8984 138.199 48.5781C138.941 48.25 139.793 48.0859 140.754 48.0859C141.715 48.0859 142.57 48.25 143.32 48.5781C144.07 48.8984 144.699 49.3477 145.207 49.9258C145.723 50.5039 146.113 51.1875 146.379 51.9766C146.645 52.7578 146.777 53.6133 146.777 54.543V54.7891C146.777 55.7109 146.645 56.5664 146.379 57.3555C146.113 58.1367 145.723 58.8203 145.207 59.4062C144.699 59.9844 144.074 60.4336 143.332 60.7539C142.59 61.0742 141.738 61.2344 140.777 61.2344C139.816 61.2344 138.961 61.0742 138.211 60.7539C137.469 60.4336 136.84 59.9844 136.324 59.4062C135.816 58.8203 135.43 58.1367 135.164 57.3555C134.898 56.5664 134.766 55.7109 134.766 54.7891ZM138.141 54.543V54.7891C138.141 55.3203 138.188 55.8164 138.281 56.2773C138.375 56.7383 138.523 57.1445 138.727 57.4961C138.938 57.8398 139.211 58.1094 139.547 58.3047C139.883 58.5 140.293 58.5977 140.777 58.5977C141.246 58.5977 141.648 58.5 141.984 58.3047C142.32 58.1094 142.59 57.8398 142.793 57.4961C142.996 57.1445 143.145 56.7383 143.238 56.2773C143.34 55.8164 143.391 55.3203 143.391 54.7891V54.543C143.391 54.0273 143.34 53.543 143.238 53.0898C143.145 52.6289 142.992 52.2227 142.781 51.8711C142.578 51.5117 142.309 51.2305 141.973 51.0273C141.637 50.8242 141.23 50.7227 140.754 50.7227C140.277 50.7227 139.871 50.8242 139.535 51.0273C139.207 51.2305 138.938 51.5117 138.727 51.8711C138.523 52.2227 138.375 52.6289 138.281 53.0898C138.188 53.543 138.141 54.0273 138.141 54.543ZM154.09 58.5977C154.504 58.5977 154.871 58.5195 155.191 58.3633C155.512 58.1992 155.762 57.9727 155.941 57.6836C156.129 57.3867 156.227 57.0391 156.234 56.6406H159.41C159.402 57.5312 159.164 58.3242 158.695 59.0195C158.227 59.707 157.598 60.25 156.809 60.6484C156.02 61.0391 155.137 61.2344 154.16 61.2344C153.176 61.2344 152.316 61.0703 151.582 60.7422C150.855 60.4141 150.25 59.9609 149.766 59.3828C149.281 58.7969 148.918 58.1172 148.676 57.3438C148.434 56.5625 148.312 55.7266 148.312 54.8359V54.4961C148.312 53.5977 148.434 52.7617 148.676 51.9883C148.918 51.207 149.281 50.5273 149.766 49.9492C150.25 49.3633 150.855 48.9062 151.582 48.5781C152.309 48.25 153.16 48.0859 154.137 48.0859C155.176 48.0859 156.086 48.2852 156.867 48.6836C157.656 49.082 158.273 49.6523 158.719 50.3945C159.172 51.1289 159.402 52 159.41 53.0078H156.234C156.227 52.5859 156.137 52.2031 155.965 51.8594C155.801 51.5156 155.559 51.2422 155.238 51.0391C154.926 50.8281 154.539 50.7227 154.078 50.7227C153.586 50.7227 153.184 50.8281 152.871 51.0391C152.559 51.2422 152.316 51.5234 152.145 51.8828C151.973 52.2344 151.852 52.6367 151.781 53.0898C151.719 53.5352 151.688 54.0039 151.688 54.4961V54.8359C151.688 55.3281 151.719 55.8008 151.781 56.2539C151.844 56.707 151.961 57.1094 152.133 57.4609C152.312 57.8125 152.559 58.0898 152.871 58.293C153.184 58.4961 153.59 58.5977 154.09 58.5977ZM164.742 42.9883V61H161.367V42.9883H164.742ZM172.734 48.3203L167.227 54.6016L164.273 57.5898L163.043 55.1523L165.387 52.1758L168.68 48.3203H172.734ZM169.23 61L165.48 55.1406L167.812 53.1016L173.121 61H169.23ZM182.027 43.9375V61H178.523V43.9375H182.027ZM187.277 43.9375V46.6914H173.355V43.9375H187.277ZM186.492 54.7891V54.543C186.492 53.6133 186.625 52.7578 186.891 51.9766C187.156 51.1875 187.543 50.5039 188.051 49.9258C188.559 49.3477 189.184 48.8984 189.926 48.5781C190.668 48.25 191.52 48.0859 192.48 48.0859C193.441 48.0859 194.297 48.25 195.047 48.5781C195.797 48.8984 196.426 49.3477 196.934 49.9258C197.449 50.5039 197.84 51.1875 198.105 51.9766C198.371 52.7578 198.504 53.6133 198.504 54.543V54.7891C198.504 55.7109 198.371 56.5664 198.105 57.3555C197.84 58.1367 197.449 58.8203 196.934 59.4062C196.426 59.9844 195.801 60.4336 195.059 60.7539C194.316 61.0742 193.465 61.2344 192.504 61.2344C191.543 61.2344 190.688 61.0742 189.938 60.7539C189.195 60.4336 188.566 59.9844 188.051 59.4062C187.543 58.8203 187.156 58.1367 186.891 57.3555C186.625 56.5664 186.492 55.7109 186.492 54.7891ZM189.867 54.543V54.7891C189.867 55.3203 189.914 55.8164 190.008 56.2773C190.102 56.7383 190.25 57.1445 190.453 57.4961C190.664 57.8398 190.938 58.1094 191.273 58.3047C191.609 58.5 192.02 58.5977 192.504 58.5977C192.973 58.5977 193.375 58.5 193.711 58.3047C194.047 58.1094 194.316 57.8398 194.52 57.4961C194.723 57.1445 194.871 56.7383 194.965 56.2773C195.066 55.8164 195.117 55.3203 195.117 54.7891V54.543C195.117 54.0273 195.066 53.543 194.965 53.0898C194.871 52.6289 194.719 52.2227 194.508 51.8711C194.305 51.5117 194.035 51.2305 193.699 51.0273C193.363 50.8242 192.957 50.7227 192.48 50.7227C192.004 50.7227 191.598 50.8242 191.262 51.0273C190.934 51.2305 190.664 51.5117 190.453 51.8711C190.25 52.2227 190.102 52.6289 190.008 53.0898C189.914 53.543 189.867 54.0273 189.867 54.543ZM203.953 42.9883V61H200.578V42.9883H203.953ZM211.945 48.3203L206.438 54.6016L203.484 57.5898L202.254 55.1523L204.598 52.1758L207.891 48.3203H211.945ZM208.441 61L204.691 55.1406L207.023 53.1016L212.332 61H208.441Z" fill="#888888"/>
<path d="M110.062 92.0469L101.742 119H92.9062L105.445 84.875H111.047L110.062 92.0469ZM116.953 119L108.609 92.0469L107.531 84.875H113.203L125.812 119H116.953ZM116.625 106.273V112.625H99.1172V106.273H116.625ZM137.062 84.875V119H128.859V84.875H137.062ZM157.898 101.234V107.352H143.812V101.234H157.898ZM178.078 107.422H169.594V101.07H178.078C179.234 101.07 180.172 100.875 180.891 100.484C181.609 100.094 182.133 99.5547 182.461 98.8672C182.805 98.1641 182.977 97.375 182.977 96.5C182.977 95.5625 182.805 94.6953 182.461 93.8984C182.133 93.1016 181.609 92.4609 180.891 91.9766C180.172 91.4766 179.234 91.2266 178.078 91.2266H172.688V119H164.461V84.875H178.078C180.812 84.875 183.164 85.375 185.133 86.375C187.117 87.375 188.641 88.75 189.703 90.5C190.766 92.2344 191.297 94.2188 191.297 96.4531C191.297 98.6562 190.766 100.578 189.703 102.219C188.641 103.859 187.117 105.141 185.133 106.062C183.164 106.969 180.812 107.422 178.078 107.422ZM194.039 106.578V106.086C194.039 104.227 194.305 102.516 194.836 100.953C195.367 99.375 196.148 98.0078 197.18 96.8516C198.211 95.6953 199.484 94.7969 201 94.1562C202.516 93.5 204.266 93.1719 206.25 93.1719C208.25 93.1719 210.008 93.5 211.523 94.1562C213.055 94.7969 214.336 95.6953 215.367 96.8516C216.398 98.0078 217.18 99.375 217.711 100.953C218.242 102.516 218.508 104.227 218.508 106.086V106.578C218.508 108.422 218.242 110.133 217.711 111.711C217.18 113.273 216.398 114.641 215.367 115.812C214.336 116.969 213.062 117.867 211.547 118.508C210.031 119.148 208.281 119.469 206.297 119.469C204.312 119.469 202.555 119.148 201.023 118.508C199.492 117.867 198.211 116.969 197.18 115.812C196.148 114.641 195.367 113.273 194.836 111.711C194.305 110.133 194.039 108.422 194.039 106.578ZM201.938 106.086V106.578C201.938 107.531 202.008 108.422 202.148 109.25C202.289 110.078 202.523 110.805 202.852 111.43C203.18 112.039 203.625 112.516 204.188 112.859C204.75 113.203 205.453 113.375 206.297 113.375C207.125 113.375 207.812 113.203 208.359 112.859C208.922 112.516 209.367 112.039 209.695 111.43C210.023 110.805 210.258 110.078 210.398 109.25C210.539 108.422 210.609 107.531 210.609 106.578V106.086C210.609 105.164 210.539 104.297 210.398 103.484C210.258 102.656 210.023 101.93 209.695 101.305C209.367 100.664 208.922 100.164 208.359 99.8047C207.797 99.4453 207.094 99.2656 206.25 99.2656C205.422 99.2656 204.727 99.4453 204.164 99.8047C203.617 100.164 203.18 100.664 202.852 101.305C202.523 101.93 202.289 102.656 202.148 103.484C202.008 104.297 201.938 105.164 201.938 106.086ZM229.734 111.453L234.422 93.6406H239.367L237.609 102.57L232.969 119H229.008L229.734 111.453ZM227.883 93.6406L230.789 111.312L231.117 119H226.312L220.312 93.6406H227.883ZM243.539 110.938L246.469 93.6406H254.039L248.086 119H243.281L243.539 110.938ZM239.93 93.6406L244.664 111.406L245.391 119H241.383L236.836 102.617L235.148 93.6406H239.93ZM269.18 119.469C267.117 119.469 265.273 119.148 263.648 118.508C262.023 117.852 260.648 116.953 259.523 115.812C258.414 114.672 257.562 113.359 256.969 111.875C256.391 110.391 256.102 108.82 256.102 107.164V106.273C256.102 104.414 256.359 102.695 256.875 101.117C257.391 99.5234 258.156 98.1328 259.172 96.9453C260.188 95.7578 261.461 94.8359 262.992 94.1797C264.523 93.5078 266.305 93.1719 268.336 93.1719C270.133 93.1719 271.742 93.4609 273.164 94.0391C274.586 94.6172 275.789 95.4453 276.773 96.5234C277.773 97.6016 278.531 98.9062 279.047 100.438C279.578 101.969 279.844 103.688 279.844 105.594V108.805H259.125V103.859H272.133V103.25C272.148 102.406 272 101.688 271.688 101.094C271.391 100.5 270.953 100.047 270.375 99.7344C269.797 99.4219 269.094 99.2656 268.266 99.2656C267.406 99.2656 266.695 99.4531 266.133 99.8281C265.586 100.203 265.156 100.719 264.844 101.375C264.547 102.016 264.336 102.758 264.211 103.602C264.086 104.445 264.023 105.336 264.023 106.273V107.164C264.023 108.102 264.148 108.953 264.398 109.719C264.664 110.484 265.039 111.141 265.523 111.688C266.023 112.219 266.617 112.633 267.305 112.93C268.008 113.227 268.805 113.375 269.695 113.375C270.773 113.375 271.836 113.172 272.883 112.766C273.93 112.359 274.828 111.688 275.578 110.75L279.164 115.016C278.648 115.75 277.914 116.461 276.961 117.148C276.023 117.836 274.898 118.398 273.586 118.836C272.273 119.258 270.805 119.469 269.18 119.469ZM291.023 99.9219V119H283.125V93.6406H290.508L291.023 99.9219ZM298.523 93.4531L298.383 100.789C298.07 100.758 297.648 100.719 297.117 100.672C296.586 100.625 296.141 100.602 295.781 100.602C294.859 100.602 294.062 100.711 293.391 100.93C292.734 101.133 292.188 101.445 291.75 101.867C291.328 102.273 291.016 102.789 290.812 103.414C290.625 104.039 290.539 104.766 290.555 105.594L289.125 104.656C289.125 102.953 289.289 101.406 289.617 100.016C289.961 98.6094 290.445 97.3984 291.07 96.3828C291.695 95.3516 292.453 94.5625 293.344 94.0156C294.234 93.4531 295.234 93.1719 296.344 93.1719C296.734 93.1719 297.117 93.1953 297.492 93.2422C297.883 93.2891 298.227 93.3594 298.523 93.4531ZM313.055 119.469C310.992 119.469 309.148 119.148 307.523 118.508C305.898 117.852 304.523 116.953 303.398 115.812C302.289 114.672 301.438 113.359 300.844 111.875C300.266 110.391 299.977 108.82 299.977 107.164V106.273C299.977 104.414 300.234 102.695 300.75 101.117C301.266 99.5234 302.031 98.1328 303.047 96.9453C304.062 95.7578 305.336 94.8359 306.867 94.1797C308.398 93.5078 310.18 93.1719 312.211 93.1719C314.008 93.1719 315.617 93.4609 317.039 94.0391C318.461 94.6172 319.664 95.4453 320.648 96.5234C321.648 97.6016 322.406 98.9062 322.922 100.438C323.453 101.969 323.719 103.688 323.719 105.594V108.805H303V103.859H316.008V103.25C316.023 102.406 315.875 101.688 315.562 101.094C315.266 100.5 314.828 100.047 314.25 99.7344C313.672 99.4219 312.969 99.2656 312.141 99.2656C311.281 99.2656 310.57 99.4531 310.008 99.8281C309.461 100.203 309.031 100.719 308.719 101.375C308.422 102.016 308.211 102.758 308.086 103.602C307.961 104.445 307.898 105.336 307.898 106.273V107.164C307.898 108.102 308.023 108.953 308.273 109.719C308.539 110.484 308.914 111.141 309.398 111.688C309.898 112.219 310.492 112.633 311.18 112.93C311.883 113.227 312.68 113.375 313.57 113.375C314.648 113.375 315.711 113.172 316.758 112.766C317.805 112.359 318.703 111.688 319.453 110.75L323.039 115.016C322.523 115.75 321.789 116.461 320.836 117.148C319.898 117.836 318.773 118.398 317.461 118.836C316.148 119.258 314.68 119.469 313.055 119.469ZM341.508 113.188V83H349.453V119H342.328L341.508 113.188ZM325.945 106.625V106.133C325.945 104.211 326.156 102.461 326.578 100.883C327 99.2891 327.625 97.9219 328.453 96.7812C329.281 95.625 330.312 94.7344 331.547 94.1094C332.781 93.4844 334.203 93.1719 335.812 93.1719C337.25 93.1719 338.508 93.5078 339.586 94.1797C340.664 94.8359 341.586 95.7578 342.352 96.9453C343.117 98.1328 343.742 99.5234 344.227 101.117C344.711 102.695 345.078 104.398 345.328 106.227V106.812C345.078 108.531 344.711 110.156 344.227 111.688C343.742 113.203 343.117 114.547 342.352 115.719C341.586 116.891 340.656 117.812 339.562 118.484C338.484 119.141 337.219 119.469 335.766 119.469C334.156 119.469 332.734 119.148 331.5 118.508C330.281 117.867 329.258 116.969 328.43 115.812C327.617 114.656 327 113.297 326.578 111.734C326.156 110.172 325.945 108.469 325.945 106.625ZM333.844 106.133V106.625C333.844 107.578 333.906 108.461 334.031 109.273C334.156 110.086 334.367 110.805 334.664 111.43C334.977 112.039 335.383 112.516 335.883 112.859C336.398 113.203 337.031 113.375 337.781 113.375C338.797 113.375 339.633 113.133 340.289 112.648C340.961 112.164 341.453 111.477 341.766 110.586C342.094 109.695 342.234 108.648 342.188 107.445V105.594C342.219 104.562 342.148 103.656 341.977 102.875C341.805 102.078 341.531 101.414 341.156 100.883C340.797 100.352 340.336 99.9531 339.773 99.6875C339.227 99.4062 338.578 99.2656 337.828 99.2656C337.094 99.2656 336.469 99.4375 335.953 99.7812C335.453 100.125 335.047 100.609 334.734 101.234C334.422 101.844 334.195 102.57 334.055 103.414C333.914 104.242 333.844 105.148 333.844 106.133ZM380.719 92.0469L372.398 119H363.562L376.102 84.875H381.703L380.719 92.0469ZM387.609 119L379.266 92.0469L378.188 84.875H383.859L396.469 119H387.609ZM387.281 106.273V112.625H369.773V106.273H387.281ZM405.445 98.5156V128.75H397.547V93.6406H404.906L405.445 98.5156ZM421.008 106.016V106.508C421.008 108.352 420.797 110.062 420.375 111.641C419.953 113.219 419.328 114.594 418.5 115.766C417.672 116.938 416.641 117.852 415.406 118.508C414.188 119.148 412.773 119.469 411.164 119.469C409.648 119.469 408.344 119.133 407.25 118.461C406.156 117.789 405.242 116.859 404.508 115.672C403.773 114.484 403.18 113.125 402.727 111.594C402.273 110.062 401.914 108.445 401.648 106.742V106.109C401.914 104.281 402.273 102.586 402.727 101.023C403.18 99.4453 403.773 98.0703 404.508 96.8984C405.242 95.7266 406.148 94.8125 407.227 94.1562C408.32 93.5 409.625 93.1719 411.141 93.1719C412.75 93.1719 414.164 93.4766 415.383 94.0859C416.617 94.6953 417.648 95.5703 418.477 96.7109C419.32 97.8359 419.953 99.1875 420.375 100.766C420.797 102.344 421.008 104.094 421.008 106.016ZM413.109 106.508V106.016C413.109 105.031 413.039 104.133 412.898 103.32C412.758 102.492 412.531 101.773 412.219 101.164C411.922 100.555 411.523 100.086 411.023 99.7578C410.523 99.4297 409.906 99.2656 409.172 99.2656C408.328 99.2656 407.617 99.3984 407.039 99.6641C406.477 99.9141 406.023 100.305 405.68 100.836C405.352 101.352 405.117 102 404.977 102.781C404.852 103.547 404.797 104.445 404.812 105.477V107.398C404.781 108.586 404.898 109.633 405.164 110.539C405.43 111.43 405.891 112.125 406.547 112.625C407.203 113.125 408.094 113.375 409.219 113.375C409.969 113.375 410.594 113.203 411.094 112.859C411.594 112.5 411.992 112.008 412.289 111.383C412.586 110.742 412.797 110.008 412.922 109.18C413.047 108.352 413.109 107.461 413.109 106.508ZM432.492 98.5156V128.75H424.594V93.6406H431.953L432.492 98.5156ZM448.055 106.016V106.508C448.055 108.352 447.844 110.062 447.422 111.641C447 113.219 446.375 114.594 445.547 115.766C444.719 116.938 443.688 117.852 442.453 118.508C441.234 119.148 439.82 119.469 438.211 119.469C436.695 119.469 435.391 119.133 434.297 118.461C433.203 117.789 432.289 116.859 431.555 115.672C430.82 114.484 430.227 113.125 429.773 111.594C429.32 110.062 428.961 108.445 428.695 106.742V106.109C428.961 104.281 429.32 102.586 429.773 101.023C430.227 99.4453 430.82 98.0703 431.555 96.8984C432.289 95.7266 433.195 94.8125 434.273 94.1562C435.367 93.5 436.672 93.1719 438.188 93.1719C439.797 93.1719 441.211 93.4766 442.43 94.0859C443.664 94.6953 444.695 95.5703 445.523 96.7109C446.367 97.8359 447 99.1875 447.422 100.766C447.844 102.344 448.055 104.094 448.055 106.016ZM440.156 106.508V106.016C440.156 105.031 440.086 104.133 439.945 103.32C439.805 102.492 439.578 101.773 439.266 101.164C438.969 100.555 438.57 100.086 438.07 99.7578C437.57 99.4297 436.953 99.2656 436.219 99.2656C435.375 99.2656 434.664 99.3984 434.086 99.6641C433.523 99.9141 433.07 100.305 432.727 100.836C432.398 101.352 432.164 102 432.023 102.781C431.898 103.547 431.844 104.445 431.859 105.477V107.398C431.828 108.586 431.945 109.633 432.211 110.539C432.477 111.43 432.938 112.125 433.594 112.625C434.25 113.125 435.141 113.375 436.266 113.375C437.016 113.375 437.641 113.203 438.141 112.859C438.641 112.5 439.039 112.008 439.336 111.383C439.633 110.742 439.844 110.008 439.969 109.18C440.094 108.352 440.156 107.461 440.156 106.508Z" fill="black"/>
<path d="M1134 0H1348C1356.28 0 1363 6.71573 1363 15V148C1363 156.284 1356.28 163 1348 163H1134V0Z" fill="#00796B"/>
<path d="M1212.5 117.5L1212.5 45.5L1284.5 45.5L1284.5 117.5L1212.5 117.5Z" fill="white" fill-opacity="0.01"/>
<path d="M1221.5 81.5125L1221.5 108.5L1275.5 108.5L1275.5 81.5" stroke="white" stroke-width="7.24" stroke-linecap="round" stroke-linejoin="round"/>
<path d="M1262 68L1248.5 54.5L1235 68" stroke="white" stroke-width="7.24" stroke-linecap="round" stroke-linejoin="round"/>
<path d="M1248.49 93.4999L1248.49 54.5" stroke="white" stroke-width="7.24" stroke-linecap="round" stroke-linejoin="round"/>
</svg>
